<mxfile host="app.diagrams.net" modified="2024-02-28T22:36:41.023Z" agent="Mozilla/5.0 (Windows NT 10.0; Win64; x64) AppleWebKit/537.36 (KHTML, like Gecko) Chrome/115.0.0.0 Safari/537.36" etag="Qe3Kflh3FZBPWCdYj3_t" version="23.1.8" type="google">
  <diagram id="C5RBs43oDa-KdzZeNtuy" name="Page-1">
    <mxGraphModel grid="1" page="1" gridSize="10" guides="1" tooltips="1" connect="1" arrows="1" fold="1" pageScale="1" pageWidth="827" pageHeight="1169" math="0" shadow="0">
      <root>
        <mxCell id="WIyWlLk6GJQsqaUBKTNV-0" />
        <mxCell id="WIyWlLk6GJQsqaUBKTNV-1" parent="WIyWlLk6GJQsqaUBKTNV-0" />
        <mxCell id="y3zzz-iCeHu50V3-HveZ-5" style="edgeStyle=orthogonalEdgeStyle;rounded=0;orthogonalLoop=1;jettySize=auto;html=1;exitX=1;exitY=0.75;exitDx=0;exitDy=0;entryX=0;entryY=1;entryDx=0;entryDy=0;" edge="1" parent="WIyWlLk6GJQsqaUBKTNV-1" source="y3zzz-iCeHu50V3-HveZ-0" target="y3zzz-iCeHu50V3-HveZ-1">
          <mxGeometry relative="1" as="geometry">
            <Array as="points">
              <mxPoint x="190" y="230" />
            </Array>
          </mxGeometry>
        </mxCell>
        <mxCell id="y3zzz-iCeHu50V3-HveZ-0" value="Usuario" style="rounded=1;whiteSpace=wrap;html=1;" vertex="1" parent="WIyWlLk6GJQsqaUBKTNV-1">
          <mxGeometry x="70" y="180" width="120" height="60" as="geometry" />
        </mxCell>
        <mxCell id="y3zzz-iCeHu50V3-HveZ-1" value="inicio" style="rhombus;whiteSpace=wrap;html=1;" vertex="1" parent="WIyWlLk6GJQsqaUBKTNV-1">
          <mxGeometry x="350" y="170" width="80" height="80" as="geometry" />
        </mxCell>
        <mxCell id="y3zzz-iCeHu50V3-HveZ-7" style="edgeStyle=orthogonalEdgeStyle;rounded=0;orthogonalLoop=1;jettySize=auto;html=1;exitX=0;exitY=0.75;exitDx=0;exitDy=0;entryX=1;entryY=1;entryDx=0;entryDy=0;" edge="1" parent="WIyWlLk6GJQsqaUBKTNV-1">
          <mxGeometry relative="1" as="geometry">
            <mxPoint x="630" y="240.0599999999999" as="sourcePoint" />
            <mxPoint x="410" y="245.0599999999999" as="targetPoint" />
            <Array as="points">
              <mxPoint x="520" y="240" />
              <mxPoint x="410" y="241" />
            </Array>
          </mxGeometry>
        </mxCell>
        <mxCell id="y3zzz-iCeHu50V3-HveZ-3" value="app" style="rounded=1;whiteSpace=wrap;html=1;" vertex="1" parent="WIyWlLk6GJQsqaUBKTNV-1">
          <mxGeometry x="630" y="180" width="120" height="60" as="geometry" />
        </mxCell>
        <mxCell id="y3zzz-iCeHu50V3-HveZ-4" style="edgeStyle=orthogonalEdgeStyle;rounded=0;orthogonalLoop=1;jettySize=auto;html=1;exitX=1;exitY=0.25;exitDx=0;exitDy=0;entryX=0.101;entryY=0.394;entryDx=0;entryDy=0;entryPerimeter=0;" edge="1" parent="WIyWlLk6GJQsqaUBKTNV-1" source="y3zzz-iCeHu50V3-HveZ-0" target="y3zzz-iCeHu50V3-HveZ-1">
          <mxGeometry relative="1" as="geometry">
            <Array as="points">
              <mxPoint x="190" y="200" />
              <mxPoint x="270" y="200" />
              <mxPoint x="270" y="202" />
            </Array>
          </mxGeometry>
        </mxCell>
        <mxCell id="y3zzz-iCeHu50V3-HveZ-6" style="edgeStyle=orthogonalEdgeStyle;rounded=0;orthogonalLoop=1;jettySize=auto;html=1;exitX=0;exitY=0.25;exitDx=0;exitDy=0;entryX=0.925;entryY=0.321;entryDx=0;entryDy=0;entryPerimeter=0;" edge="1" parent="WIyWlLk6GJQsqaUBKTNV-1" source="y3zzz-iCeHu50V3-HveZ-3" target="y3zzz-iCeHu50V3-HveZ-1">
          <mxGeometry relative="1" as="geometry" />
        </mxCell>
        <mxCell id="y3zzz-iCeHu50V3-HveZ-11" style="edgeStyle=orthogonalEdgeStyle;rounded=0;orthogonalLoop=1;jettySize=auto;html=1;entryX=0;entryY=0.25;entryDx=0;entryDy=0;exitX=0.5;exitY=0;exitDx=0;exitDy=0;" edge="1" parent="WIyWlLk6GJQsqaUBKTNV-1" source="y3zzz-iCeHu50V3-HveZ-8" target="y3zzz-iCeHu50V3-HveZ-9">
          <mxGeometry relative="1" as="geometry" />
        </mxCell>
        <mxCell id="y3zzz-iCeHu50V3-HveZ-8" value="Usuario" style="rounded=1;whiteSpace=wrap;html=1;" vertex="1" parent="WIyWlLk6GJQsqaUBKTNV-1">
          <mxGeometry x="50" y="690" width="120" height="60" as="geometry" />
        </mxCell>
        <mxCell id="y3zzz-iCeHu50V3-HveZ-12" style="edgeStyle=orthogonalEdgeStyle;rounded=0;orthogonalLoop=1;jettySize=auto;html=1;" edge="1" parent="WIyWlLk6GJQsqaUBKTNV-1" source="y3zzz-iCeHu50V3-HveZ-9">
          <mxGeometry relative="1" as="geometry">
            <mxPoint x="690" y="680" as="targetPoint" />
          </mxGeometry>
        </mxCell>
        <mxCell id="y3zzz-iCeHu50V3-HveZ-9" value="loguear" style="rounded=1;whiteSpace=wrap;html=1;" vertex="1" parent="WIyWlLk6GJQsqaUBKTNV-1">
          <mxGeometry x="340" y="600" width="120" height="60" as="geometry" />
        </mxCell>
        <mxCell id="y3zzz-iCeHu50V3-HveZ-15" style="edgeStyle=orthogonalEdgeStyle;rounded=0;orthogonalLoop=1;jettySize=auto;html=1;entryX=1;entryY=0.5;entryDx=0;entryDy=0;exitX=0.5;exitY=1;exitDx=0;exitDy=0;" edge="1" parent="WIyWlLk6GJQsqaUBKTNV-1" source="y3zzz-iCeHu50V3-HveZ-13" target="y3zzz-iCeHu50V3-HveZ-14">
          <mxGeometry relative="1" as="geometry" />
        </mxCell>
        <mxCell id="y3zzz-iCeHu50V3-HveZ-13" value="adminsitrador" style="rounded=1;whiteSpace=wrap;html=1;" vertex="1" parent="WIyWlLk6GJQsqaUBKTNV-1">
          <mxGeometry x="630" y="690" width="120" height="60" as="geometry" />
        </mxCell>
        <mxCell id="y3zzz-iCeHu50V3-HveZ-16" style="edgeStyle=orthogonalEdgeStyle;rounded=0;orthogonalLoop=1;jettySize=auto;html=1;" edge="1" parent="WIyWlLk6GJQsqaUBKTNV-1" source="y3zzz-iCeHu50V3-HveZ-14">
          <mxGeometry relative="1" as="geometry">
            <mxPoint x="110" y="750" as="targetPoint" />
          </mxGeometry>
        </mxCell>
        <mxCell id="y3zzz-iCeHu50V3-HveZ-14" value="trabajar" style="rounded=1;whiteSpace=wrap;html=1;" vertex="1" parent="WIyWlLk6GJQsqaUBKTNV-1">
          <mxGeometry x="340" y="820" width="120" height="60" as="geometry" />
        </mxCell>
        <mxCell id="y3zzz-iCeHu50V3-HveZ-19" style="edgeStyle=orthogonalEdgeStyle;rounded=0;orthogonalLoop=1;jettySize=auto;html=1;entryX=0;entryY=0.5;entryDx=0;entryDy=0;exitX=0.5;exitY=0;exitDx=0;exitDy=0;" edge="1" parent="WIyWlLk6GJQsqaUBKTNV-1" source="y3zzz-iCeHu50V3-HveZ-17" target="y3zzz-iCeHu50V3-HveZ-18">
          <mxGeometry relative="1" as="geometry" />
        </mxCell>
        <mxCell id="y3zzz-iCeHu50V3-HveZ-17" value="usuario" style="rounded=1;whiteSpace=wrap;html=1;" vertex="1" parent="WIyWlLk6GJQsqaUBKTNV-1">
          <mxGeometry x="50" y="1150" width="120" height="60" as="geometry" />
        </mxCell>
        <mxCell id="y3zzz-iCeHu50V3-HveZ-21" value="" style="edgeStyle=orthogonalEdgeStyle;rounded=0;orthogonalLoop=1;jettySize=auto;html=1;" edge="1" parent="WIyWlLk6GJQsqaUBKTNV-1" source="y3zzz-iCeHu50V3-HveZ-18" target="y3zzz-iCeHu50V3-HveZ-20">
          <mxGeometry relative="1" as="geometry" />
        </mxCell>
        <mxCell id="y3zzz-iCeHu50V3-HveZ-18" value="loguear" style="rounded=1;whiteSpace=wrap;html=1;" vertex="1" parent="WIyWlLk6GJQsqaUBKTNV-1">
          <mxGeometry x="190" y="1070" width="120" height="60" as="geometry" />
        </mxCell>
        <mxCell id="y3zzz-iCeHu50V3-HveZ-23" style="edgeStyle=orthogonalEdgeStyle;rounded=0;orthogonalLoop=1;jettySize=auto;html=1;exitX=1;exitY=0;exitDx=0;exitDy=0;entryX=0;entryY=0.5;entryDx=0;entryDy=0;" edge="1" parent="WIyWlLk6GJQsqaUBKTNV-1" source="y3zzz-iCeHu50V3-HveZ-20" target="y3zzz-iCeHu50V3-HveZ-22">
          <mxGeometry relative="1" as="geometry" />
        </mxCell>
        <mxCell id="y3zzz-iCeHu50V3-HveZ-25" style="edgeStyle=orthogonalEdgeStyle;rounded=0;orthogonalLoop=1;jettySize=auto;html=1;entryX=0.5;entryY=0;entryDx=0;entryDy=0;" edge="1" parent="WIyWlLk6GJQsqaUBKTNV-1" source="y3zzz-iCeHu50V3-HveZ-20" target="y3zzz-iCeHu50V3-HveZ-24">
          <mxGeometry relative="1" as="geometry" />
        </mxCell>
        <mxCell id="y3zzz-iCeHu50V3-HveZ-20" value="clientes" style="whiteSpace=wrap;html=1;rounded=1;" vertex="1" parent="WIyWlLk6GJQsqaUBKTNV-1">
          <mxGeometry x="390" y="1070" width="120" height="60" as="geometry" />
        </mxCell>
        <mxCell id="y3zzz-iCeHu50V3-HveZ-22" value="Almacen de datos" style="shape=process;whiteSpace=wrap;html=1;backgroundOutline=1;" vertex="1" parent="WIyWlLk6GJQsqaUBKTNV-1">
          <mxGeometry x="600" y="1000" width="120" height="60" as="geometry" />
        </mxCell>
        <mxCell id="y3zzz-iCeHu50V3-HveZ-27" value="" style="edgeStyle=orthogonalEdgeStyle;rounded=0;orthogonalLoop=1;jettySize=auto;html=1;" edge="1" parent="WIyWlLk6GJQsqaUBKTNV-1" source="y3zzz-iCeHu50V3-HveZ-24" target="y3zzz-iCeHu50V3-HveZ-26">
          <mxGeometry relative="1" as="geometry" />
        </mxCell>
        <mxCell id="y3zzz-iCeHu50V3-HveZ-31" style="edgeStyle=orthogonalEdgeStyle;rounded=0;orthogonalLoop=1;jettySize=auto;html=1;" edge="1" parent="WIyWlLk6GJQsqaUBKTNV-1" target="y3zzz-iCeHu50V3-HveZ-32">
          <mxGeometry relative="1" as="geometry">
            <mxPoint x="680" y="1380" as="targetPoint" />
            <mxPoint x="750" y="1210" as="sourcePoint" />
            <Array as="points">
              <mxPoint x="750" y="1390" />
              <mxPoint x="680" y="1390" />
            </Array>
          </mxGeometry>
        </mxCell>
        <mxCell id="y3zzz-iCeHu50V3-HveZ-24" value="administrador" style="rounded=1;whiteSpace=wrap;html=1;" vertex="1" parent="WIyWlLk6GJQsqaUBKTNV-1">
          <mxGeometry x="640" y="1150" width="120" height="60" as="geometry" />
        </mxCell>
        <mxCell id="y3zzz-iCeHu50V3-HveZ-29" value="" style="edgeStyle=orthogonalEdgeStyle;rounded=0;orthogonalLoop=1;jettySize=auto;html=1;" edge="1" parent="WIyWlLk6GJQsqaUBKTNV-1" source="y3zzz-iCeHu50V3-HveZ-26" target="y3zzz-iCeHu50V3-HveZ-28">
          <mxGeometry relative="1" as="geometry" />
        </mxCell>
        <mxCell id="y3zzz-iCeHu50V3-HveZ-26" value="pedidos" style="whiteSpace=wrap;html=1;rounded=1;" vertex="1" parent="WIyWlLk6GJQsqaUBKTNV-1">
          <mxGeometry x="580" y="1240" width="120" height="60" as="geometry" />
        </mxCell>
        <mxCell id="y3zzz-iCeHu50V3-HveZ-42" style="edgeStyle=orthogonalEdgeStyle;rounded=0;orthogonalLoop=1;jettySize=auto;html=1;entryX=1;entryY=0.5;entryDx=0;entryDy=0;" edge="1" parent="WIyWlLk6GJQsqaUBKTNV-1" source="y3zzz-iCeHu50V3-HveZ-28" target="y3zzz-iCeHu50V3-HveZ-41">
          <mxGeometry relative="1" as="geometry" />
        </mxCell>
        <mxCell id="y3zzz-iCeHu50V3-HveZ-28" value="estado Pedidos" style="whiteSpace=wrap;html=1;rounded=1;" vertex="1" parent="WIyWlLk6GJQsqaUBKTNV-1">
          <mxGeometry x="460" y="1200" width="120" height="60" as="geometry" />
        </mxCell>
        <mxCell id="y3zzz-iCeHu50V3-HveZ-35" style="edgeStyle=orthogonalEdgeStyle;rounded=0;orthogonalLoop=1;jettySize=auto;html=1;" edge="1" parent="WIyWlLk6GJQsqaUBKTNV-1" source="y3zzz-iCeHu50V3-HveZ-32" target="y3zzz-iCeHu50V3-HveZ-36">
          <mxGeometry relative="1" as="geometry">
            <mxPoint x="480" y="1380" as="targetPoint" />
          </mxGeometry>
        </mxCell>
        <mxCell id="y3zzz-iCeHu50V3-HveZ-39" style="edgeStyle=orthogonalEdgeStyle;rounded=0;orthogonalLoop=1;jettySize=auto;html=1;entryX=1;entryY=1;entryDx=0;entryDy=0;exitX=0.5;exitY=1;exitDx=0;exitDy=0;" edge="1" parent="WIyWlLk6GJQsqaUBKTNV-1" source="y3zzz-iCeHu50V3-HveZ-32" target="y3zzz-iCeHu50V3-HveZ-38">
          <mxGeometry relative="1" as="geometry" />
        </mxCell>
        <mxCell id="y3zzz-iCeHu50V3-HveZ-32" value="materia prima" style="rounded=1;whiteSpace=wrap;html=1;" vertex="1" parent="WIyWlLk6GJQsqaUBKTNV-1">
          <mxGeometry x="580" y="1350" width="120" height="60" as="geometry" />
        </mxCell>
        <mxCell id="y3zzz-iCeHu50V3-HveZ-37" style="edgeStyle=orthogonalEdgeStyle;rounded=0;orthogonalLoop=1;jettySize=auto;html=1;" edge="1" parent="WIyWlLk6GJQsqaUBKTNV-1" source="y3zzz-iCeHu50V3-HveZ-36" target="y3zzz-iCeHu50V3-HveZ-38">
          <mxGeometry relative="1" as="geometry">
            <mxPoint x="350" y="1380" as="targetPoint" />
          </mxGeometry>
        </mxCell>
        <mxCell id="y3zzz-iCeHu50V3-HveZ-36" value="Producto terminado" style="rounded=1;whiteSpace=wrap;html=1;" vertex="1" parent="WIyWlLk6GJQsqaUBKTNV-1">
          <mxGeometry x="420" y="1350" width="120" height="60" as="geometry" />
        </mxCell>
        <mxCell id="y3zzz-iCeHu50V3-HveZ-40" style="edgeStyle=orthogonalEdgeStyle;rounded=0;orthogonalLoop=1;jettySize=auto;html=1;" edge="1" parent="WIyWlLk6GJQsqaUBKTNV-1" source="y3zzz-iCeHu50V3-HveZ-38" target="y3zzz-iCeHu50V3-HveZ-41">
          <mxGeometry relative="1" as="geometry">
            <mxPoint x="300" y="1320" as="targetPoint" />
          </mxGeometry>
        </mxCell>
        <mxCell id="y3zzz-iCeHu50V3-HveZ-38" value="Movimientos" style="rounded=1;whiteSpace=wrap;html=1;" vertex="1" parent="WIyWlLk6GJQsqaUBKTNV-1">
          <mxGeometry x="270" y="1400" width="120" height="60" as="geometry" />
        </mxCell>
        <mxCell id="y3zzz-iCeHu50V3-HveZ-43" style="edgeStyle=orthogonalEdgeStyle;rounded=0;orthogonalLoop=1;jettySize=auto;html=1;entryX=0.5;entryY=1;entryDx=0;entryDy=0;" edge="1" parent="WIyWlLk6GJQsqaUBKTNV-1" source="y3zzz-iCeHu50V3-HveZ-41" target="y3zzz-iCeHu50V3-HveZ-17">
          <mxGeometry relative="1" as="geometry" />
        </mxCell>
        <mxCell id="y3zzz-iCeHu50V3-HveZ-41" value="factura" style="rounded=1;whiteSpace=wrap;html=1;" vertex="1" parent="WIyWlLk6GJQsqaUBKTNV-1">
          <mxGeometry x="240" y="1290" width="120" height="60" as="geometry" />
        </mxCell>
      </root>
    </mxGraphModel>
  </diagram>
</mxfile>
